<svg width="500" height="500" viewBox="0 0 500 500" fill="none" xmlns="http://www.w3.org/2000/svg">
<g clip-path="url(#clip0_1_2)">
<mask id="mask0_1_2" style="mask-type:luminance" maskUnits="userSpaceOnUse" x="0" y="0" width="500" height="500">
<path d="M500 0H0V500H500V0Z" fill="white"/>
</mask>
<g mask="url(#mask0_1_2)">
<path d="M500 250C500 111.929 388.071 0 250 0C111.929 0 0 111.929 0 250C0 388.071 111.929 500 250 500C388.071 500 500 388.071 500 250Z" fill="#3B82F6"/>
<path d="M380.391 171.707L364.3 137.317L329.923 121.22L364.3 105.122L380.391 70.7317L396.483 105.122L430.86 121.22L396.483 137.317L380.391 171.707ZM411.111 277.439L400.14 254.39L377.1 243.415L400.14 232.439L411.111 209.39L422.082 232.439L445.122 243.415L422.082 254.39L411.111 277.439ZM219.845 363.415L216.188 329.756C212.774 329.268 209.239 328.171 205.582 326.463C201.926 324.756 198.756 322.683 196.073 320.244L167.549 332.317L135.366 279.634L163.16 261.341C161.94 257.195 161.332 253.537 161.332 250.366C161.332 247.195 161.94 243.537 163.16 239.39L135.366 221.098L167.549 168.415L196.073 180.488C198.756 178.049 201.926 175.976 205.582 174.268C209.239 172.561 212.774 171.463 216.188 170.976L219.845 137.317H281.284L284.941 170.976C288.355 171.463 291.889 172.561 295.546 174.268C299.204 175.976 302.373 178.049 305.055 180.488L333.581 168.415L365.763 221.098L337.97 239.39C339.188 243.537 339.798 247.195 339.798 250.366C339.798 253.537 339.188 257.195 337.97 261.341L365.763 279.634L333.581 332.317L305.055 320.244C302.373 322.683 299.204 324.756 295.546 326.463C291.889 328.171 288.355 329.268 284.941 329.756L281.284 363.415H219.845ZM250.565 292.439C262.755 292.439 272.812 288.476 280.735 280.549C288.66 272.622 292.621 262.561 292.621 250.366C292.621 238.171 288.66 228.11 280.735 220.183C272.812 212.256 262.755 208.293 250.565 208.293C238.374 208.293 228.317 212.256 220.394 220.183C212.47 228.11 208.507 238.171 208.507 250.366C208.507 262.561 212.47 272.622 220.394 280.549C228.317 288.476 238.374 292.439 250.565 292.439Z" fill="white"/>
</g>
</g>
<defs>
<clipPath id="clip0_1_2">
<rect width="500" height="500" fill="white"/>
</clipPath>
</defs>
</svg>
